<svg fill="#ffffff" xmlns="http://www.w3.org/2000/svg"  viewBox="0 0 50 50" width="100px" height="100px"><path d="M 26 5 C 21.980469 5 18.382813 7.386719 16.8125 11.03125 C 12.277344 10.59375 8.335938 13.574219 7.28125 17.8125 C 4.105469 19.261719 2 22.488281 2 26 C 2 30.964844 6.039063 35 11 35 L 16.125 35 L 15.0625 37.625 L 14.53125 39 L 20.5625 39 L 18.0625 45.65625 L 16.9375 48.625 L 19.5625 46.8125 L 32.5625 37.90625 L 33 37.59375 L 33 36 L 28.71875 36 L 29.28125 35 L 39 35 C 43.964844 35 48 30.964844 48 26 C 48 22.515625 46.042969 19.40625 42.9375 17.90625 C 42.421875 13.65625 38.925781 10.34375 34.65625 10.03125 C 32.875 6.914063 29.613281 5 26 5 Z M 21 29 L 30.28125 29 L 26.125 36.5 L 25.3125 38 L 28.90625 38 L 21.03125 43.40625 L 22.9375 38.34375 L 23.4375 37 L 17.5 37 L 19.46875 32.0625 Z"/></svg>